<mxfile host="app.diagrams.net" modified="2024-04-07T08:25:54.373Z" agent="Mozilla/5.0 (Windows NT 10.0; Win64; x64; rv:123.0) Gecko/20100101 Firefox/123.0" version="24.2.2" etag="zeIykC9tbQDa2X4-ebS1" type="github">
  <diagram name="第 1 页" id="2ZG8RZyVlA394sKls0LA">
    <mxGraphModel>
      <root>
        <mxCell id="0" />
        <mxCell id="1" parent="0" />
      </root>
    </mxGraphModel>
  </diagram>
</mxfile>
